<?xml version="1.0" encoding="UTF-8"?>
<svg xmlns="http://www.w3.org/2000/svg" xmlns:xlink="http://www.w3.org/1999/xlink" viewBox="0 0 40 40" width="40px" height="40px">
<g id="surface8443352">
<path style=" stroke:none;fill-rule:nonzero;fill:rgb(94.117647%,64.705884%,0%);fill-opacity:1;" d="M 19.960938 3.332031 C 19.691406 3.34375 19.4375 3.4375 19.226562 3.601562 L 7.382812 12.933594 C 5.878906 14.117188 5 15.929688 5 17.839844 L 5 33.75 C 5 34.886719 5.945312 35.832031 7.082031 35.832031 L 15.417969 35.832031 C 16.554688 35.832031 17.5 34.886719 17.5 33.75 L 17.5 25.417969 C 17.5 25.171875 17.671875 25 17.917969 25 L 22.082031 25 C 22.328125 25 22.5 25.171875 22.5 25.417969 L 22.5 33.75 C 22.5 34.886719 23.445312 35.832031 24.582031 35.832031 L 32.917969 35.832031 C 34.054688 35.832031 35 34.886719 35 33.75 L 35 17.839844 C 35 15.929688 34.121094 14.117188 32.617188 12.933594 L 20.773438 3.601562 C 20.542969 3.417969 20.253906 3.324219 19.960938 3.332031 Z M 20 6.175781 L 31.070312 14.898438 C 31.972656 15.609375 32.5 16.691406 32.5 17.839844 L 32.5 33.332031 L 25 33.332031 L 25 25.417969 C 25 23.820312 23.679688 22.5 22.082031 22.5 L 17.917969 22.5 C 16.320312 22.5 15 23.820312 15 25.417969 L 15 33.332031 L 7.5 33.332031 L 7.5 17.839844 C 7.5 16.691406 8.027344 15.609375 8.929688 14.898438 Z M 20 6.175781 "/>
</g>
</svg>
